<svg width="32" height="32" viewBox="0 0 32 32" fill="none" xmlns="http://www.w3.org/2000/svg">
<mask id="mask0_3924_16339" style="mask-type:alpha" maskUnits="userSpaceOnUse" x="6" y="5" width="21" height="23">
<path fill-rule="evenodd" clip-rule="evenodd" d="M16.1719 5C15.6461 5 15.1296 5.13818 14.674 5.40069L11.4781 7.22689C11.2682 7.26848 11.0723 7.37694 10.9248 7.5431L7.67573 9.3997L7.67188 9.40192C7.3023 9.6153 6.9835 9.90447 6.73576 10.2492C6.67495 10.3098 6.62101 10.3793 6.57597 10.4572C6.5371 10.5244 6.50692 10.5942 6.48509 10.6654C6.27992 11.0784 6.17235 11.534 6.17188 11.9969V19.999C6.17241 20.5251 6.31129 21.0418 6.57457 21.4972C6.83785 21.9527 7.21627 22.3309 7.67188 22.594L7.67574 22.5962L10.9253 24.4531C11.0676 24.6128 11.2604 24.7265 11.4787 24.7693L14.6719 26.594L14.6737 26.595C14.9909 26.7778 15.3376 26.9004 15.6964 26.958C15.8378 27.0346 15.9998 27.078 16.1719 27.078C16.344 27.078 16.506 27.0346 16.6474 26.958C17.0062 26.9004 17.3529 26.7778 17.6701 26.595L17.6719 26.594L20.865 24.7693C21.0834 24.7266 21.2764 24.6127 21.4188 24.4529L24.668 22.5962L24.6719 22.594C25.1275 22.3309 25.5059 21.9527 25.7692 21.4972C26.0325 21.0418 26.1713 20.5251 26.1719 19.999V16.0153C26.1721 16.0031 26.1721 15.991 26.1719 15.9788V11.9969C26.1714 11.5328 26.0633 11.0761 25.8571 10.6622C25.8353 10.5921 25.8055 10.5234 25.7672 10.4572C25.7227 10.3802 25.6695 10.3114 25.6095 10.2513C25.3616 9.90567 25.0422 9.61574 24.6719 9.40191L21.4197 7.54351C21.272 7.37698 21.0757 7.26833 20.8654 7.22679L17.6719 5.40192L17.6698 5.40072C17.2142 5.1382 16.6977 5 16.1719 5ZM17.1719 24.5762L19.6719 23.1476V18.598C19.6719 18.2408 19.8624 17.9108 20.1716 17.7321L24.1719 15.4208V12.5353L17.1719 16.5845V24.5762ZM15.1719 16.5849L8.17187 12.5356V15.4207L12.1723 17.7321C12.4816 17.9108 12.672 18.2408 12.672 18.598V23.1477L15.1719 24.5762V16.5849ZM16.1716 14.8527L23.1327 10.8259L20.6225 9.39147L16.6723 11.6738C16.3628 11.8526 15.9813 11.8526 15.6718 11.6738L11.7214 9.39138L9.21072 10.8261L16.1716 14.8527ZM21.6719 22.0048L23.6719 20.8619L23.6735 20.861C23.8246 20.7734 23.9502 20.6476 24.0376 20.4963C24.1254 20.3445 24.1717 20.1723 24.1719 19.9969V17.7307L21.6719 19.1751V22.0048ZM8.17187 19.9974V17.7306L10.672 19.1751V22.0049L8.67187 20.8619L8.6703 20.861C8.51913 20.7734 8.39356 20.6476 8.3061 20.4963C8.21842 20.3446 8.17213 20.1726 8.17187 19.9974ZM18.6126 8.24294L16.6719 7.13398C16.5198 7.04621 16.3474 7 16.1719 7C15.9963 7 15.8239 7.04621 15.6719 7.13397L15.668 7.1362L13.7314 8.24285L16.172 9.65302L18.6126 8.24294Z" fill="#6E6E6C"/>
</mask>
<g mask="url(#mask0_3924_16339)">
<rect x="4" y="4" width="24" height="24" fill="white"/>
</g>
</svg>
