<svg width="25" height="24" viewBox="0 0 25 24" fill="none" xmlns="http://www.w3.org/2000/svg">
<mask id="mask0_4036_18157" style="mask-type:alpha" maskUnits="userSpaceOnUse" x="4" y="4" width="17" height="15">
<path fill-rule="evenodd" clip-rule="evenodd" d="M11.4394 4.77806C11.7631 4.59577 12.1284 4.5 12.5 4.5C12.8716 4.5 13.2369 4.59577 13.5606 4.77806C13.8844 4.96035 14.1558 5.22301 14.3485 5.5407L14.3505 5.54412L20.4544 15.7341L20.4603 15.7441C20.6491 16.071 20.7489 16.4416 20.75 16.8191C20.751 17.1966 20.6532 17.5678 20.4663 17.8958C20.2794 18.2237 20.0098 18.497 19.6845 18.6885C19.3591 18.8799 18.9893 18.9828 18.6118 18.987L18.6039 18.9871L6.38818 18.987C6.01071 18.9829 5.6409 18.8799 5.31554 18.6885C4.99019 18.497 4.72063 18.2237 4.5337 17.8958C4.34676 17.5678 4.24895 17.1966 4.25001 16.8191C4.25107 16.4416 4.35095 16.071 4.53972 15.7441L4.54558 15.7341L10.6495 5.54413L11.2677 5.91444L10.6515 5.5407C10.8442 5.22301 11.1156 4.96035 11.4394 4.77806ZM11.8847 6.28676L5.78549 16.4689C5.72411 16.5769 5.69165 16.6989 5.6913 16.8231C5.69095 16.949 5.72355 17.0727 5.78586 17.182C5.84818 17.2913 5.93803 17.3824 6.04648 17.4463C6.15398 17.5095 6.27604 17.5438 6.40072 17.5457H18.5993C18.724 17.5438 18.846 17.5095 18.9535 17.4463C19.062 17.3824 19.1518 17.2913 19.2141 17.182C19.2765 17.0727 19.3091 16.949 19.3087 16.8231C19.3084 16.6989 19.2759 16.5769 19.2145 16.469L13.1162 6.2882L13.1153 6.28676C13.0511 6.18151 12.961 6.09447 12.8535 6.03398C12.7456 5.97322 12.6239 5.9413 12.5 5.9413C12.3761 5.9413 12.2544 5.97322 12.1465 6.03398C12.039 6.09447 11.9489 6.18151 11.8847 6.28676Z" fill="white"/>
</mask>
<g mask="url(#mask0_4036_18157)">
<rect x="3.62891" y="3" width="18" height="18" fill="white"/>
</g>
</svg>
