<svg width="79" height="24" viewBox="0 0 79 24" fill="none" xmlns="http://www.w3.org/2000/svg">
<path d="M3.74842 7.3806C4.11377 6.82502 4.61794 6.37629 5.26094 6.0344C5.90395 5.6925 6.65656 5.52156 7.51877 5.52156C8.52711 5.52156 9.44047 5.77085 10.2588 6.26945C11.0772 6.76804 11.7202 7.48032 12.1879 8.40628C12.6701 9.33224 12.9112 10.4078 12.9112 11.6329C12.9112 12.858 12.6701 13.9407 12.1879 14.8809C11.7202 15.8068 11.0772 16.5262 10.2588 17.0391C9.44047 17.5377 8.52711 17.787 7.51877 17.787C6.67117 17.787 5.91856 17.616 5.26094 17.2741C4.61794 16.9322 4.11377 16.4906 3.74842 15.9493V23.3H0V5.6925H3.74842V7.3806ZM9.09705 11.6329C9.09705 10.7212 8.834 10.0089 8.30791 9.49606C7.79643 8.96898 7.16073 8.70544 6.40081 8.70544C5.65551 8.70544 5.01982 8.96898 4.49372 9.49606C3.98224 10.0231 3.7265 10.7425 3.7265 11.6543C3.7265 12.566 3.98224 13.2854 4.49372 13.8125C5.01982 14.3396 5.65551 14.6031 6.40081 14.6031C7.14611 14.6031 7.78181 14.3396 8.30791 13.8125C8.834 13.2711 9.09705 12.5446 9.09705 11.6329Z" fill="#1c1c1b"/>
<path d="M18.6262 7.67976C19.0646 7.02446 19.6126 6.51162 20.2702 6.14124C20.9278 5.75661 21.6585 5.56429 22.4623 5.56429V9.43196H21.432C20.4967 9.43196 19.7953 9.6314 19.3276 10.0303C18.86 10.4149 18.6262 11.0987 18.6262 12.0816V17.616H14.8777V5.6925H18.6262V7.67976Z" fill="#1c1c1b"/>
<path d="M26.1391 4.45314C25.4815 4.45314 24.9408 4.26795 24.517 3.89756C24.1078 3.51293 23.9032 3.04283 23.9032 2.48726C23.9032 1.91743 24.1078 1.44733 24.517 1.07694C24.9408 0.692315 25.4815 0.5 26.1391 0.5C26.7821 0.5 27.3082 0.692315 27.7174 1.07694C28.1412 1.44733 28.3531 1.91743 28.3531 2.48726C28.3531 3.04283 28.1412 3.51293 27.7174 3.89756C27.3082 4.26795 26.7821 4.45314 26.1391 4.45314ZM28.0024 5.6925V17.616H24.2539V5.6925H28.0024Z" fill="#1c1c1b"/>
<path d="M35.6948 17.787C34.628 17.787 33.6781 17.6089 32.8451 17.2528C32.0121 16.8966 31.3545 16.4123 30.8722 15.7997C30.39 15.1729 30.1196 14.4749 30.0612 13.7056H33.7658C33.8096 14.1187 34.0069 14.4535 34.3576 14.7099C34.7084 14.9664 35.1395 15.0946 35.6509 15.0946C36.1186 15.0946 36.4766 15.0091 36.725 14.8381C36.9881 14.653 37.1196 14.4179 37.1196 14.133C37.1196 13.7911 36.9369 13.5418 36.5716 13.3851C36.2063 13.2142 35.6144 13.029 34.796 12.8295C33.9192 12.6301 33.1885 12.4235 32.604 12.2098C32.0194 11.9819 31.5153 11.6329 31.0915 11.1628C30.6677 10.6784 30.4558 10.0303 30.4558 9.21828C30.4558 8.53449 30.6457 7.91481 31.0257 7.35923C31.4203 6.78941 31.9902 6.34067 32.7355 6.01303C33.4954 5.68538 34.3942 5.52156 35.4317 5.52156C36.9662 5.52156 38.1718 5.89194 39.0486 6.63271C39.9401 7.37348 40.4516 8.35642 40.5831 9.58154H37.1196C37.0612 9.16842 36.8712 8.84077 36.5497 8.59859C36.2428 8.35642 35.8336 8.23533 35.3221 8.23533C34.8837 8.23533 34.5476 8.32081 34.3138 8.49175C34.08 8.64845 33.9631 8.86926 33.9631 9.15417C33.9631 9.49606 34.1457 9.75248 34.5111 9.92343C34.891 10.0944 35.4756 10.2653 36.2647 10.4363C37.1708 10.6642 37.9088 10.8921 38.4787 11.1201C39.0486 11.3337 39.5455 11.6899 39.9693 12.1885C40.4077 12.6728 40.6342 13.3281 40.6488 14.1544C40.6488 14.8524 40.4442 15.4792 40.0351 16.0348C39.6405 16.5761 39.0632 17.0035 38.3033 17.3169C37.558 17.6303 36.6885 17.787 35.6948 17.787Z" fill="#1c1c1b"/>
<path d="M58.5496 5.56429C60.0694 5.56429 61.275 6.01303 62.1665 6.9105C63.0725 7.80797 63.5255 9.05445 63.5255 10.65V17.616H59.799V11.1414C59.799 10.3722 59.5871 9.78097 59.1633 9.36785C58.7542 8.94049 58.1842 8.72681 57.4535 8.72681C56.7229 8.72681 56.1456 8.94049 55.7218 9.36785C55.3126 9.78097 55.108 10.3722 55.108 11.1414V17.616H51.3815V11.1414C51.3815 10.3722 51.1696 9.78097 50.7458 9.36785C50.3367 8.94049 49.7667 8.72681 49.036 8.72681C48.3053 8.72681 47.7281 8.94049 47.3043 9.36785C46.8951 9.78097 46.6905 10.3722 46.6905 11.1414V17.616H42.9421V5.6925H46.6905V7.18828C47.0705 6.68969 47.5673 6.29794 48.1811 6.01303C48.7949 5.71387 49.4891 5.56429 50.2636 5.56429C51.1843 5.56429 52.0026 5.75661 52.7187 6.14124C53.4494 6.52587 54.0193 7.07432 54.4285 7.7866C54.8523 7.1313 55.4295 6.59709 56.1602 6.18397C56.8909 5.77085 57.6874 5.56429 58.5496 5.56429Z" fill="#1c1c1b"/>
<path d="M65.4018 11.6329C65.4018 10.4078 65.6356 9.33224 66.1033 8.40628C66.5855 7.48032 67.2358 6.76804 68.0542 6.26945C68.8726 5.77085 69.7859 5.52156 70.7943 5.52156C71.6565 5.52156 72.4091 5.6925 73.0521 6.0344C73.7097 6.37629 74.2139 6.82502 74.5646 7.3806V5.6925H78.313V17.616H74.5646V15.9279C74.1993 16.4835 73.6878 16.9322 73.0302 17.2741C72.3872 17.616 71.6346 17.787 70.7724 17.787C69.7786 17.787 68.8726 17.5377 68.0542 17.0391C67.2358 16.5262 66.5855 15.8068 66.1033 14.8809C65.6356 13.9407 65.4018 12.858 65.4018 11.6329ZM74.5646 11.6543C74.5646 10.7425 74.3016 10.0231 73.7755 9.49606C73.264 8.96898 72.6356 8.70544 71.8903 8.70544C71.145 8.70544 70.5093 8.96898 69.9832 9.49606C69.4717 10.0089 69.216 10.7212 69.216 11.6329C69.216 12.5446 69.4717 13.2711 69.9832 13.8125C70.5093 14.3396 71.145 14.6031 71.8903 14.6031C72.6356 14.6031 73.264 14.3396 73.7755 13.8125C74.3016 13.2854 74.5646 12.566 74.5646 11.6543Z" fill="#1c1c1b"/>
</svg>
